<?xml version="1.0" encoding="utf-8"?>
<!-- Generator: Adobe Illustrator 27.8.1, SVG Export Plug-In . SVG Version: 6.00 Build 0)  -->
<svg version="1.1" id="Layer_1" xmlns="http://www.w3.org/2000/svg" xmlns:xlink="http://www.w3.org/1999/xlink" x="0px" y="0px"
	 viewBox="0 0 1200 500" style="enable-background:new 0 0 1200 500;" xml:space="preserve">
<style type="text/css">
	.st0{fill:#FFFFFF;}
	.st1{fill:#00FFAA;}
</style>
<g>
	<path class="st0" d="M558.2,146.6l-88.1,239h30l22.2-61.5h101.7l21.9,61.5h30.4l-87.7-239H558.2z M530.9,300.9l42.3-116.2
		l42.3,116.2H530.9z"/>
	<polygon class="st0" points="738.4,357.9 687.6,216.2 657.5,216.2 721.7,385.6 754.8,385.6 819,216.2 789.6,216.2 	"/>
	<rect x="1006.4" y="216.2" class="st0" width="28.7" height="169.3"/>
	<path class="st0" d="M1020.8,138.7c-5.7,0-10.4,1.8-14.2,5.5c-3.8,3.6-5.6,8.2-5.6,13.7c0,5.7,1.9,10.4,5.6,14.2
		c3.8,3.8,8.5,5.6,14.2,5.6c5.5,0,10.1-1.9,14-5.6c3.9-3.8,5.8-8.5,5.8-14.2c0-5.5-1.9-10-5.8-13.7
		C1030.9,140.5,1026.2,138.7,1020.8,138.7z"/>
	<path class="st0" d="M901.8,212.1c-12.1,0-23.4,2.2-34.1,6.7c-10.7,4.4-19.6,10.9-26.8,19.3c-5.6,6.6-9.4,14.5-11.3,23.5l28.2,7.6
		c2-10.7,7.1-18.8,15.2-24.4c8.1-5.6,17.7-8.4,28.9-8.4c13,0,23.3,3.8,31.1,11.4c7.7,7.6,11.6,18.8,11.6,33.6v2h-45.8
		c-22.8,0-40.7,4.7-53.9,14c-13.2,9.3-19.8,22.7-19.8,39.9c0,9.3,2.3,18,6.8,25.9c4.6,8,11.5,14.3,20.8,19.1
		c9.3,4.8,21.1,7.2,35.2,7.2c15.5,0,27.8-3.4,37-10.1c9.2-6.7,16.2-14.9,21-24.4l1.7,30.4h25.6V281.4c0-20.9-6-37.7-17.9-50.4
		C943.3,218.4,925.4,212.1,901.8,212.1z M944.5,306c0,10-2,19.6-6.1,28.7c-4.1,9.1-10.1,16.5-17.9,22.2c-7.9,5.7-17.2,8.5-28.2,8.5
		c-11.8,0-21-2.7-27.5-8c-6.5-5.3-9.7-12.5-9.7-21.3c0-8.6,3.5-15.9,10.4-21.7c6.9-5.8,18.8-8.7,35.7-8.7h43.4V306z"/>
	<rect x="1071.3" y="146.6" class="st0" width="28.7" height="239"/>
	<path class="st1" d="M240,110.2c-67.8,0-122.9,44.1-136.7,104.7l60.8,18.6c5.5-34.9,36.3-60,75.9-60c43.8,0,76.8,30.6,76.8,71.3
		V274c0,0.8-0.8,1.2-1.5,0.8C293.5,259.9,267.6,251,240,251c-78.5,0-140.1,56.8-140.1,132.2v2.3h63.3v-2.3c0-40.6,33-68.9,76.8-68.9
		s76.8,28.3,76.8,68.9v2.3h62.9h0.4V244.7C380.1,169.3,318.5,110.2,240,110.2z"/>
</g>
</svg>
