<svg width="5682" height="1000" viewBox="0 0 5682 1000" fill="none" xmlns="http://www.w3.org/2000/svg">
<path d="M0 0H272.526V636.263V727.105H363.737H636.263V1000H0V0Z" fill="#634CFF"/>
<path d="M727.108 1000V363.737V272.526H636.266H363.74V0H1000V1000H727.108Z" fill="#634CFF"/>
<path d="M363.984 500.325C363.984 575.581 424.991 636.588 500.247 636.588C575.503 636.588 636.51 575.581 636.51 500.325C636.51 425.069 575.503 364.062 500.247 364.062C424.991 364.062 363.984 425.069 363.984 500.325Z" fill="#634CFF"/>
<path d="M5465.94 258.125H5572.32V383.885H5681.17V471.71H5572.32V663.442C5572.32 685.433 5576.86 701.513 5585.93 711.684C5595.27 721.855 5610.12 726.94 5630.46 726.94C5643.1 726.94 5658.63 724.329 5677.05 719.106V804.457C5670.18 807.481 5659.46 810.093 5644.89 812.292C5630.32 814.491 5616.3 815.59 5602.83 815.59C5554.73 815.59 5519.82 802.121 5498.1 775.182C5476.66 748.244 5465.94 709.347 5465.94 658.494V471.71H5387.6V383.885H5465.94V258.125Z" fill="black"/>
<path d="M5009.48 630.473C5012.78 663.459 5024.88 689.436 5045.77 708.403C5066.66 727.37 5095.38 736.853 5131.94 736.853C5157.23 736.853 5179.5 732.043 5198.74 722.422C5217.98 712.526 5232.83 699.057 5243.27 682.014H5342.23C5326.84 720.773 5300.17 752.797 5262.24 778.086C5224.58 803.1 5181.15 815.608 5131.94 815.608C5061.57 815.608 5006.05 794.854 4965.36 753.346C4924.95 711.839 4904.75 658.786 4904.75 594.188C4904.75 530.415 4925.5 477.775 4967.01 436.267C5008.52 394.485 5061.71 373.594 5126.58 373.594C5192.01 373.594 5245.2 394.348 5286.15 435.855C5327.39 477.363 5348 530.69 5348 595.838V630.473H5009.48ZM5128.64 449.874C5095.38 449.874 5068.17 459.77 5047 479.562C5026.11 499.078 5013.33 526.017 5008.66 560.378H5246.57C5243.27 527.117 5231.18 500.453 5210.28 480.386C5189.39 460.045 5162.18 449.874 5128.64 449.874Z" fill="black"/>
<path d="M4708.1 805.256V188.828H4814.48V805.256H4708.1Z" fill="black"/>
<path d="M4485.44 805.256V188.828H4591.82V805.256H4485.44Z" fill="black"/>
<path d="M4368.73 383.902V805.299H4266.89V732.73C4253.42 756.37 4233.07 776.162 4205.86 792.105C4178.65 807.773 4147.72 815.608 4113.09 815.608C4072.4 815.608 4035.71 805.712 4003 785.92C3970.29 766.128 3945 739.465 3927.13 705.929C3909.26 672.393 3900.33 635.421 3900.33 595.013C3900.33 554.605 3909.26 517.633 3927.13 484.097C3945 450.286 3970.29 423.485 4003 403.694C4035.71 383.627 4072.4 373.594 4113.09 373.594C4148.82 373.594 4180.3 381.565 4207.51 397.509C4235 413.177 4254.24 432.831 4265.24 456.471V383.902H4368.73ZM4042.17 500.178C4018.53 526.017 4006.71 557.629 4006.71 595.013C4006.71 632.397 4018.39 663.872 4041.76 689.436C4065.4 715 4095.91 727.782 4133.29 727.782C4169.85 727.782 4200.5 715.55 4225.24 691.085C4249.98 666.62 4262.35 634.596 4262.35 595.013C4262.35 555.43 4249.84 523.268 4224.83 498.529C4200.09 473.789 4169.58 461.419 4133.29 461.419C4096.18 461.419 4065.81 474.339 4042.17 500.178Z" fill="black"/>
<path d="M3663.24 640.82L3781.58 214.062H3891.26L3709.84 805.339H3622.84L3474.4 358.789L3325.55 805.339H3238.55L3057.12 214.062H3166.8L3285.14 640.82L3431.1 214.062H3517.28L3663.24 640.82Z" fill="black"/>
<path d="M2700.04 783.858C2664.31 805.025 2623.07 815.608 2576.34 815.608C2529.61 815.608 2488.38 805.025 2452.65 783.858C2416.91 762.692 2389.97 735.616 2371.83 702.63C2353.96 669.369 2345.03 633.497 2345.03 595.013C2345.03 566.15 2350.39 538.524 2361.11 512.135C2371.83 485.472 2386.81 461.832 2406.05 441.215C2425.3 420.599 2449.62 404.243 2479.04 392.148C2508.72 379.779 2541.16 373.594 2576.34 373.594C2611.53 373.594 2643.83 379.779 2673.24 392.148C2702.93 404.243 2727.39 420.599 2746.64 441.215C2765.88 461.832 2780.86 485.472 2791.58 512.135C2802.3 538.524 2807.66 566.15 2807.66 595.013C2807.66 633.497 2798.59 669.369 2780.45 702.63C2762.58 735.616 2735.78 762.692 2700.04 783.858ZM2645.2 481.623C2625.69 468.979 2602.73 462.656 2576.34 462.656C2549.96 462.656 2526.87 468.979 2507.07 481.623C2487.56 494.268 2472.99 510.486 2463.37 530.278C2453.75 550.069 2448.94 571.648 2448.94 595.013C2448.94 631.298 2460.34 662.36 2483.16 688.199C2505.97 714.038 2537.04 726.957 2576.34 726.957C2615.65 726.957 2646.71 714.038 2669.53 688.199C2692.35 662.36 2703.75 631.298 2703.75 595.013C2703.75 571.648 2698.94 550.069 2689.32 530.278C2679.7 510.486 2664.99 494.268 2645.2 481.623Z" fill="black"/>
<path d="M1941.79 630.473C1945.09 663.459 1957.18 689.436 1978.08 708.403C1998.97 727.37 2027.69 736.853 2064.25 736.853C2089.54 736.853 2111.81 732.043 2131.05 722.422C2150.29 712.526 2165.13 699.057 2175.58 682.014H2274.54C2259.15 720.773 2232.48 752.797 2194.55 778.086C2156.89 803.1 2113.46 815.608 2064.25 815.608C1993.88 815.608 1938.36 794.854 1897.67 753.346C1857.26 711.839 1837.06 658.786 1837.06 594.188C1837.06 530.415 1857.81 477.775 1899.32 436.267C1940.83 394.485 1994.02 373.594 2058.89 373.594C2124.31 373.594 2177.5 394.348 2218.46 435.855C2259.7 477.363 2280.31 530.69 2280.31 595.838V630.473H1941.79ZM2060.95 449.874C2027.69 449.874 2000.48 459.77 1979.31 479.562C1958.42 499.078 1945.64 526.017 1940.97 560.378H2178.88C2175.58 527.117 2163.49 500.453 2142.59 480.386C2121.7 460.045 2094.49 449.874 2060.95 449.874Z" fill="black"/>
<path d="M1399.99 214.062H1509.67V709.267H1778.92V805.339H1399.99V214.062Z" fill="black"/>
</svg>
